<?xml version="1.0" encoding="utf-8"?>
<?xml-stylesheet type="text/xsl" href="rss1.xsl"?>
<rss version="2.0" xmlns:atom="http://www.w3.org/2005/Atom" xmlns:content="http://purl.org/rss/1.0/modules/content/" xmlns:dc="http://purl.org/dc/elements/1.1/" xmlns:media="http://search.yahoo.com/mrss/">
<channel>
 <title>Getty</title>
 <link>http://www.gettyimg.com/</link>
 <atom:link href="http://www.gettyimg.com/" rel="self" type="application/rss+xml" />

 
                <item>
                <title><![CDATA[【UPSCALED】Backstreet Boys - Show Me The Meaning Of Being Lonely (4k Upscale)]]></title>
                <link><![CDATA[https://sharemania.us/threads/backstreet-boys-show-me-the-meaning-of-being-lonely-4k-upscale.224959/]]></link>
                <description><![CDATA[<article>
<blockquote class="messageText SelectQuoteContainer ugc baseHtml">
<div style="text-align: center"><a href="https://ibb.co/DRb6tdR" target="_blank" class="externalLink" rel="nofollow"><img src="https://i.ibb.co/1mnpLcm/Show-Me-The-Meaning-Of-Being-Lonely-NTSC-dtv4-mov-thumbs.jpg" class="bbCodeImage LbImage" alt="[​IMG]" data-url="https://i.ibb.co/1mnpLcm/Show-Me-The-Meaning-Of-Being-Lonely-NTSC-dtv4-mov-thumbs.jpg"></a><br>
<a href="https://ibb.co/nDyGWbQ" target="_blank" class="externalLink" rel="nofollow"><img src="https://i.ibb.co/YtSCr3f/Show-Me-The-Meaning-Of-Being-Lonely-NTSC-dtv4-mov-snapshot-01-54-000.jpg" class="bbCodeImage LbImage" alt="[​IMG]" data-url="https://i.ibb.co/YtSCr3f/Show-Me-The-Meaning-Of-Being-Lonely-NTSC-dtv4-mov-snapshot-01-54-000.jpg"></a><br>
<a href="https://ibb.co/xh4xF3Z" target="_blank" class="externalLink" rel="nofollow"><img src="https://i.ibb.co/JnhD3CZ/Show-Me-The-Meaning-Of-Being-Lonely-NTSC-dtv4-mov-snapshot-02-33-182.jpg" class="bbCodeImage LbImage" alt="[​IMG]" data-url="https://i.ibb.co/JnhD3CZ/Show-Me-The-Meaning-Of-Being-Lonely-NTSC-dtv4-mov-snapshot-02-33-182.jpg"></a><br>
<br>
<div class="bbCodeBlock bbCodeVfcHH HiddenContent">
<div class="attribution type">Hidden Content:</div>
<blockquote>You must either reply or click 'Like' to see the hidden information contained here.</blockquote>
</div></div>
<div class="messageTextEndMarker">&nbsp;</div>
</blockquote>
</article>]]></description>
                <author><![CDATA[vjrhymes]]></author>
                </item>

                
                <item>
                <title><![CDATA[【Apple Music】WEB-RiP - Wale - My Love (feat. Major Lazer, WizKid, Dua Lipa) (1080p)]]></title>
                <link><![CDATA[https://sharemania.us/threads/wale-my-love-feat-major-lazer-wizkid-dua-lipa-1080p.224960/]]></link>
                <description><![CDATA[<article>
<blockquote class="messageText SelectQuoteContainer ugc baseHtml">
<img src="https://i.imgur.com/n3BD5b5.jpg" class="bbCodeImage LbImage" alt="[​IMG]" data-url="https://i.imgur.com/n3BD5b5.jpg" style=""><br>
<br>
<div class="bbCodeBlock bbCodeCode">
<div class="type">Code:</div>
<pre>General
Complete name                  : C:\Users\asus\Desktop\Wale - My Love (feat. Major Lazer, WizKid, Dua Lipa).mp4
Format                         : MPEG-4
Format profile                 : Base Media
Codec ID                       : isom (isom/iso2/avc1/mp41)
File size                      : 185 MiB
Duration                       : 3 min 47 s
Overall bit rate               : 6 827 kb/s
Frame rate                     : 23.976 FPS
Movie name                     : My Love (feat. Major Lazer, WizKid, Dua Lipa)
Performer                      : Wale
Genre                          : Hip-Hop/Rap
ContentType                    : Music Video
Recorded date                  : 2017-08-15 07:00:00 UTC
Writing application            : Lavf57.29.101
Copyright                      : ℗ 2017 Maybach Music Group, LLC/Atlantic for the United States and Maybach Music Group, LLC/WEA International Inc. for the rest of the world

Video
ID                             : 1
Format                         : AVC
Format/Info                    : Advanced Video Codec
Format profile                 : High@L4
Format settings                : CABAC / 4 Ref Frames
Format settings, CABAC         : Yes
Format settings, Reference fra : 4 frames
Codec ID                       : avc1
Codec ID/Info                  : Advanced Video Coding
Duration                       : 3 min 47 s
Bit rate                       : 6 570 kb/s
Width                          : 1 920 pixels
Height                         : 944 pixels
Display aspect ratio           : 2.034
Frame rate mode                : Constant
Frame rate                     : 23.976 (24000/1001) FPS
Color space                    : YUV
Chroma subsampling             : 4:2:0
Bit depth                      : 8 bits
Scan type                      : Progressive
Bits/(Pixel*Frame)             : 0.151
Stream size                    : 178 MiB (96%)
Color range                    : Limited
Color primaries                : BT.709
Transfer characteristics       : BT.709
Matrix coefficients            : BT.709
Codec configuration box        : avcC

Audio
ID                             : 2
Format                         : AAC LC
Format/Info                    : Advanced Audio Codec Low Complexity
Codec ID                       : mp4a-40-2
Duration                       : 3 min 47 s
Bit rate mode                  : Constant
Bit rate                       : 253 kb/s
Channel(s)                     : 2 channels
Channel layout                 : L R
Sampling rate                  : 48.0 kHz
Frame rate                     : 46.875 FPS (1024 SPF)
Compression mode               : Lossy
Stream size                    : 6.85 MiB (4%)
Default                        : Yes
Alternate group                : 1

</pre>
</div>
<div class="bbCodeBlock bbCodeVfcHH HiddenContent">
<div class="attribution type">Hidden Content:</div>
<blockquote>You must either reply or click 'Like' to see the hidden information contained here.</blockquote>
</div>
<div class="messageTextEndMarker">&nbsp;</div>
</blockquote>
</article>]]></description>
                <author><![CDATA[vitalya3]]></author>
                </item>

                
                <item>
                <title><![CDATA[【Apple Music】WEB-RiP - Sean Paul - No Lie (feat. Dua Lipa) (1080p)]]></title>
                <link><![CDATA[https://sharemania.us/threads/sean-paul-no-lie-feat-dua-lipa-1080p.224962/]]></link>
                <description><![CDATA[<article>
<blockquote class="messageText SelectQuoteContainer ugc baseHtml">
<img src="https://i.imgur.com/mhXurcQ.jpg" class="bbCodeImage LbImage" alt="[​IMG]" data-url="https://i.imgur.com/mhXurcQ.jpg" style=""><br>
<br>
<div class="bbCodeBlock bbCodeCode">
<div class="type">Code:</div>
<pre>General
Complete name                  : C:\Users\asus\Desktop\Sean Paul - No Lie (feat. Dua Lipa).mp4
Format                         : MPEG-4
Format profile                 : Base Media
Codec ID                       : isom (isom/iso2/avc1/mp41)
File size                      : 187 MiB
Duration                       : 3 min 48 s
Overall bit rate               : 6 869 kb/s
Frame rate                     : 25.000 FPS
Movie name                     : No Lie (feat. Dua Lipa)
Performer                      : Sean Paul
Genre                          : Reggae
ContentType                    : Music Video
Recorded date                  : 2017-01-10 08:00:00 UTC
Writing application            : Lavf57.29.101
Copyright                      : ℗ 2017 SPJ Productions Ltd, under exclusive license to Island Records, a division of Universal Music Operations Limited

Video
ID                             : 1
Format                         : AVC
Format/Info                    : Advanced Video Codec
Format profile                 : High@L4
Format settings                : CABAC / 4 Ref Frames
Format settings, CABAC         : Yes
Format settings, Reference fra : 4 frames
Codec ID                       : avc1
Codec ID/Info                  : Advanced Video Coding
Duration                       : 3 min 48 s
Bit rate                       : 6 620 kb/s
Width                          : 1 912 pixels
Height                         : 1 072 pixels
Display aspect ratio           : 16:9
Frame rate mode                : Constant
Frame rate                     : 25.000 FPS
Color space                    : YUV
Chroma subsampling             : 4:2:0
Bit depth                      : 8 bits
Scan type                      : Progressive
Bits/(Pixel*Frame)             : 0.129
Stream size                    : 180 MiB (96%)
Color range                    : Limited
Color primaries                : BT.709
Transfer characteristics       : BT.709
Matrix coefficients            : BT.709
Codec configuration box        : avcC

Audio
ID                             : 2
Format                         : AAC LC
Format/Info                    : Advanced Audio Codec Low Complexity
Codec ID                       : mp4a-40-2
Duration                       : 3 min 48 s
Bit rate mode                  : Constant
Bit rate                       : 245 kb/s
Channel(s)                     : 2 channels
Channel layout                 : L R
Sampling rate                  : 48.0 kHz
Frame rate                     : 46.875 FPS (1024 SPF)
Compression mode               : Lossy
Stream size                    : 6.68 MiB (4%)
Default                        : Yes
Alternate group                : 1

</pre>
</div>
<div class="bbCodeBlock bbCodeVfcHH HiddenContent">
<div class="attribution type">Hidden Content:</div>
<blockquote>You must either reply or click 'Like' to see the hidden information contained here.</blockquote>
</div>
<div class="messageTextEndMarker">&nbsp;</div>
</blockquote>
</article>]]></description>
                <author><![CDATA[vitalya3]]></author>
                </item>

                
                <item>
                <title><![CDATA[【Apple Music】WEB-RiP - Dua Lipa - Don't Start Now (1080p)]]></title>
                <link><![CDATA[https://sharemania.us/threads/dua-lipa-dont-start-now-1080p.224958/]]></link>
                <description><![CDATA[<article>
<blockquote class="messageText SelectQuoteContainer ugc baseHtml">
<img src="https://i.imgur.com/e8cigRx.jpg" class="bbCodeImage LbImage" alt="[​IMG]" data-url="https://i.imgur.com/e8cigRx.jpg" style=""><br>
<br>
<div class="bbCodeBlock bbCodeCode">
<div class="type">Code:</div>
<pre>General
Complete name                  : C:\Users\asus\Desktop\Dua Lipa - Don't Start Now.mp4
Format                         : MPEG-4
Format profile                 : Base Media
Codec ID                       : isom (isom/iso2/avc1/mp41)
File size                      : 224 MiB
Duration                       : 3 min 1 s
Overall bit rate               : 10.4 Mb/s
Frame rate                     : 23.976 FPS
Movie name                     : Don't Start Now
Performer                      : Dua Lipa
Genre                          : Pop
ContentType                    : Music Video
Recorded date                  : 2019-11-01 07:00:00 UTC
Writing application            : Lavf57.29.101
Copyright                      : ℗ 2019 Dua Lipa Limited under exclusive license to Warner Records UK, a division of Warner Music UK Limited

Video
ID                             : 1
Format                         : AVC
Format/Info                    : Advanced Video Codec
Format profile                 : High@L4
Format settings                : CABAC / 5 Ref Frames
Format settings, CABAC         : Yes
Format settings, Reference fra : 5 frames
Codec ID                       : avc1
Codec ID/Info                  : Advanced Video Coding
Duration                       : 3 min 1 s
Bit rate                       : 10.1 Mb/s
Width                          : 1 920 pixels
Height                         : 804 pixels
Display aspect ratio           : 2.40:1
Frame rate mode                : Constant
Frame rate                     : 23.976 (24000/1001) FPS
Color space                    : YUV
Chroma subsampling             : 4:2:0
Bit depth                      : 8 bits
Scan type                      : Progressive
Bits/(Pixel*Frame)             : 0.273
Stream size                    : 218 MiB (98%)
Language                       : English
Color range                    : Limited
Color primaries                : BT.709
Transfer characteristics       : BT.709
Matrix coefficients            : BT.709
Codec configuration box        : avcC

Audio
ID                             : 2
Format                         : AAC LC
Format/Info                    : Advanced Audio Codec Low Complexity
Codec ID                       : mp4a-40-2
Duration                       : 3 min 1 s
Bit rate mode                  : Constant
Bit rate                       : 252 kb/s
Channel(s)                     : 2 channels
Channel layout                 : L R
Sampling rate                  : 48.0 kHz
Frame rate                     : 46.875 FPS (1024 SPF)
Compression mode               : Lossy
Stream size                    : 5.45 MiB (2%)
Default                        : Yes
Alternate group                : 1

</pre>
</div>
<div class="bbCodeBlock bbCodeVfcHH HiddenContent">
<div class="attribution type">Hidden Content:</div>
<blockquote>You must either reply or click 'Like' to see the hidden information contained here.</blockquote>
</div>
<div class="messageTextEndMarker">&nbsp;</div>
</blockquote>
</article>]]></description>
                <author><![CDATA[vitalya3]]></author>
                </item>

                
                <item>
                <title><![CDATA[【UPSCALED】Backstreet Boys - Larger Than Life (4k Upscale)]]></title>
                <link><![CDATA[https://sharemania.us/threads/backstreet-boys-larger-than-life-4k-upscale.224961/]]></link>
                <description><![CDATA[<article>
<blockquote class="messageText SelectQuoteContainer ugc baseHtml">
<div style="text-align: center"><a href="https://ibb.co/cLwLdHQ" target="_blank" class="externalLink" rel="nofollow"><img src="https://i.ibb.co/hfcfvjV/Larger-Than-Life-dtv4-mov-thumbs.jpg" class="bbCodeImage LbImage" alt="[​IMG]" data-url="https://i.ibb.co/hfcfvjV/Larger-Than-Life-dtv4-mov-thumbs.jpg"></a><br>
<a href="https://ibb.co/hYV6YWx" target="_blank" class="externalLink" rel="nofollow"><img src="https://i.ibb.co/9ZWDZTm/Larger-Than-Life-dtv4-mov-snapshot-01-13-846.jpg" class="bbCodeImage LbImage" alt="[​IMG]" data-url="https://i.ibb.co/9ZWDZTm/Larger-Than-Life-dtv4-mov-snapshot-01-13-846.jpg"></a><br>
<a href="https://ibb.co/VYx9Hhv" target="_blank" class="externalLink" rel="nofollow"><img src="https://i.ibb.co/Jjqtxbz/Larger-Than-Life-dtv4-mov-snapshot-01-35-709.jpg" class="bbCodeImage LbImage" alt="[​IMG]" data-url="https://i.ibb.co/Jjqtxbz/Larger-Than-Life-dtv4-mov-snapshot-01-35-709.jpg"></a><br>
<a href="https://ibb.co/g9R7G75" target="_blank" class="externalLink" rel="nofollow"><img src="https://i.ibb.co/Gp5JXJK/Larger-Than-Life-dtv4-mov-snapshot-01-39-881.jpg" class="bbCodeImage LbImage" alt="[​IMG]" data-url="https://i.ibb.co/Gp5JXJK/Larger-Than-Life-dtv4-mov-snapshot-01-39-881.jpg"></a><br>
<a href="https://ibb.co/d4VmFKx" target="_blank" class="externalLink" rel="nofollow"><img src="https://i.ibb.co/9H1Z6YS/Larger-Than-Life-dtv4-mov-snapshot-03-15-360.jpg" class="bbCodeImage LbImage" alt="[​IMG]" data-url="https://i.ibb.co/9H1Z6YS/Larger-Than-Life-dtv4-mov-snapshot-03-15-360.jpg"></a><br>
<br>
<div class="bbCodeBlock bbCodeVfcHH HiddenContent">
<div class="attribution type">Hidden Content:</div>
<blockquote>You must either reply or click 'Like' to see the hidden information contained here.</blockquote>
</div></div>
<div class="messageTextEndMarker">&nbsp;</div>
</blockquote>
</article>]]></description>
                <author><![CDATA[vjrhymes]]></author>
                </item>

                </channel></rss>